<?xml version="1.0" encoding="UTF-8"?>
<svg width="607.81" height="764.84" enable-background="new 0 0 611.005 764.837" viewBox="0 0 607.80902 764.83602" xmlns="http://www.w3.org/2000/svg">
 <g transform="translate(-3.196)">
  <path d="m3.196 0h607.81v764.84h-607.81z" fill="#d6b03d" opacity=".12"/>
  <path d="m486.19 702.09c19.682-5.528 40.024-15.323 57.596-32.111 56.412-53.892-0.721-99.012-0.721-99.012s-78.037-58.771-205.72-9.531c-32.497 12.532-40.153 48.837-40.153 48.837-7.454 88.316 102.35 97.815 102.35 97.815s39.158 8.78 81.454-3.646" fill="#fff"/>
  <path d="m486.339,702.649c40.406-11.561 95.52-48.793 80.881-97.918-4.598-15.431-15.504-29.823-29.355-38.145-23.778-14.286-51.692-21.7-79.11-24.396-22.826-2.243-46.077-.837-68.582,3.455-14.336,2.734-28.398,6.56-42.2,11.295-10.679,3.663-20.583,7.673-29.18,15.144-10.771,9.36-18.316,22.777-22.104,36.452-1.61,5.811-.961,12.541-.465,18.483 .711,8.524 2.903,16.88 6.385,24.685 11.695,26.219 38.19,41.7 64.486,50.106 10.327,3.302 21.16,5.849 31.977,6.88 6.777.646 15.493,2.33 22.988,2.753 19.876,1.12 39.948-.955 59.089-6.442 1.164-.334.873-1.447-.297-1.111-29.407,8.431-59.332,7.484-89.115,2.464-24.491-4.128-49.444-13.228-68.25-29.854-12.071-10.674-20.439-24.688-23.898-40.433-1.74-7.919-3.184-18.069-1.381-26.068 .991-4.395 2.641-8.67 4.461-12.776 3.654-8.242 8.73-15.816 15.062-22.235 9.873-10.012 22.773-14.405 35.835-18.717 26.121-8.621 53.502-13.586 81.029-13.874 32.928-.344 66.695,6.433 95.933,21.917 13.804,7.311 23.943,17.443 31.111,31.78 25.268,50.535-33.037,93.269-75.595,105.444-1.166.333-.876,1.446.295,1.111z" fill="#fff"/>
  <path d="m355.44 523.78 0.136 18.619c3.501 115.68 49.527 103.85 77.718 103.65 28.192-0.205 47.806-0.03 60.935-21.04 13.858-22.176 16.265-102.36 16.265-102.36s1.02-15.283-8.397-15.934c-9.415-0.648-127.27 0.927-127.27 0.927s-19.734-8.265-19.383 16.136z" fill="#fff"/>
  <path d="m505.95 513.43s-6.14 41.232-103.94 27.235-18.026-83.716 80.651-53.543c0 0 27.959 16.833 23.292 26.308z" fill="#fff"/>
  <path d="m480.99,703.274c-14.251,2.507-23.891,3.488-40.916,4.354-9.106,1.023-37.269-.864-61.942-6.847-24.995-5.801-44.461-18.855-44.211-19.01 .504.06-21.002-12.25-29.955-36.275-4.539-11.667-5.568-25.031-4.62-36.131 1.971-10.464 6.232-19.08 8.414-22.876 8.629-14.182 16.195-20.926 29.582-26.224-14.111,2.524-24.177,8.936-33.322,24.091-2.378,4.267-6.767,12.62-8.995,24.647-.994,11.55.067,25.646 4.896,38.044 9.604,25.582 32.155,38.352 31.58,38.284-.238.183 20.004,13.729 45.569,19.649 25.438,6.162 53.598,7.991 63.176,6.949 17.41-.941 27.242-3.496 40.744-8.655z"/>
  <path d="m543.057,569.798c5.451,6.617 8.686,11.275 14.065,19.542 2.965,4.262 10.743,19.178 9.181,33.949-1.031,14.704-9.27,26.13-9.104,26.036 .089-.007-7.125,11.525-18.612,21.187-11.004,10.142-25.553,17.762-30.464,19.976-9.1,4.151-14.197,6.667-21.942,10.434 8.505-1.107 14.367-2.29 23.78-6.515 5.077-2.247 20.117-10.125 31.508-20.628 11.849-9.962 19.485-22.137 19.394-22.147-.205.107 8.613-11.955 9.783-28.011 1.686-16.155-6.72-32.132-9.857-36.582-5.738-8.712-10.448-12.697-17.732-17.241z"/>
  <path d="m510.156,524.435c-2.055,16.033-3.459,26.865-5.46,45.961-.594,5.158-1.705,15.528-4.051,27.937-2.446,12.303-5.567,27.38-16.224,36.472-10.3,9.212-24.621,10.007-34.402,10.528-10.013.387-16.594.268-16.583.314 .027-.093-6.705.253-16.643.42-9.776.138-23.808-1.435-33.902-11.097-10.156-9.373-15.611-23.728-18.672-35.761-3.18-12.151-4.278-22.513-4.923-27.635-2.043-19.04-2.699-29.89-4.194-46.01-1.293,16.078-2.151,27.166-.146,46.495 .64,5.215 1.738,15.733 5.009,28.262 3.18,12.37 8.731,27.464 19.951,37.883 11.271,10.77 26.886,12.413 36.873,12.238 10.32-.179 16.648-.521 16.68-.43 .009-.048 6.509.079 16.743-.308 9.858-.566 25.294-1.171 37.129-11.617 11.908-10.254 15.219-26.745 17.622-38.928 2.385-12.639 3.491-23.083 4.073-28.292 1.951-19.256 1.852-30.282 1.12-46.432z"/>
  <path d="m513.877,514.847c5.532-4.293 9.725-7.744 16.69-8.719 1.824-.169 5.652.656 8.763,4.9 3.172,4.084 5.536,10.082 5.875,15.959 .66,12.039-5.425,22.313-5.172,22.238 .084.017-4.904,10.136-12.819,19.939-3.88,5.092-8.051,9.847-11.532,14.844-3.008,5.073-4.941,9.096-6.076,11.146l-.363.697-.177.343-.012.021-.005.011c-.214,3.609-.058,1.005-.104,1.813l.004.008 .026.063 .053.127 .095.205c.252.544.52,1.028.808,1.501 .587.934 1.217,1.792 2.008,2.532 1.472,1.483 3.771,2.597 5.961,2.182 4.206-1.129 5.694-4.328 7.182-7.514-2.493,2.503-5.244,4.431-7.446,4.32-1.021-.101-1.862-.705-2.758-1.771-.445-.514-.854-1.179-1.247-1.89l-.543-1.121-.061-.141-.02-.05-.01-.025-.001-.003c-.048.804.105-1.805-.107,1.802l.006-.011 .011-.021 .185-.339 .374-.693c1.105-1.97 3.208-6.253 5.937-10.846 2.938-4.225 7.478-9.507 11.286-14.498 8.075-9.994 13.377-20.716 13.283-20.741-.308.042 6.283-10.641 5.621-24.404-.398-6.777-3.069-13.61-6.795-18.394-3.586-5.176-9.716-6.974-12.402-6.554-10.011,1.616-12.945,7.114-16.518,13.084z"/>
  <path d="m499.02 519.5s-5.54 30.341-93.021 20.157-16.027-61.564 72.214-39.482c0 0 24.995 6.928 20.807 19.325z" fill="#2e251a"/>
  <path d="m506.226,513.43c-5.968,13.326-15.76,18.207-31.436,23.521-8.592,3.441-36.753,6.275-62.446,2.778-12.87-1.356-24.926-3.609-33.273-6.772-8.442-3.008-12.67-6.71-12.667-6.655 .485-.05-5.78-3.107-6.445-10.968-.485-8.103 9.42-17.283 20.635-22.558 23.034-11.466 52.054-11.381 61.099-10.755 17.157,1.086 26.877,2.401 41.241,5.102-13.566-5.376-23.399-8.287-41.021-9.463-9.332-.646-39.007-.856-63.261,11.175-11.624,5.659-23.235,15.106-23.068,26.611 1.201,11.133 8.785,14.095 8.105,14.275-.015-.041 4.954,4.19 13.875,7.344 8.825,3.35 21.325,5.658 34.29,7.03 26.005,3.563 55.027.71 64.185-2.961 16.529-5.424 26.985-13.213 30.187-27.704z"/>
  <g opacity=".86">
   <path d="m493.88 519.43s-5.179 28.358-86.951 18.841-14.98-57.549 67.504-36.907c0 0 23.362 6.476 19.447 18.066z" fill="#fff"/>
  </g>
  <g opacity=".86">
   <path d="m487.81 519.37s-4.729 25.906-79.429 17.212-13.688-52.57 61.664-33.714c0 0 21.341 5.917 17.765 16.502z" fill="#d6b03d"/>
  </g>
  <g opacity=".86">
   <path d="m482.87 519.27s-4.288 23.494-72.039 15.613c-67.753-7.888-12.414-47.681 55.93-30.582 0 0 19.352 5.369 16.109 14.969z" fill="#fff"/>
  </g>
  <g opacity=".86">
   <path d="m481.24 519.25s-4.181 22.893-70.194 15.211c-66.015-7.686-12.093-46.458 54.495-29.796 0 0 18.86 5.229 15.699 14.585z" fill="#fff"/>
  </g>
  <g opacity=".86">
   <path d="m476.34 519.2s-3.814 20.915-64.118 13.895-11.052-42.437 49.779-27.219c0 0 17.227 4.779 14.339 13.324z" fill="#d6b03d"/>
  </g>
  <g opacity=".86">
   <path d="m472.35 519.12s-3.46 18.968-58.152 12.602c-54.698-6.365-10.025-38.488 45.15-24.688 0-1e-3 15.622 4.335 13.002 12.086z" fill="#fff"/>
  </g>
  <g opacity=".86">
   <path d="m470.03 518.65s-3.408 18.673-57.262 12.409c-53.855-6.272-9.865-37.901 44.457-24.311 1e-3 1e-3 15.384 4.269 12.805 11.902z" fill="#fff"/>
  </g>
  <g opacity=".86">
   <path d="m466.03 518.61s-3.11 17.064-52.308 11.337c-49.193-5.726-9.017-34.617 40.61-22.207 1e-3 0 14.054 3.902 11.698 10.87z" fill="#d6b03d"/>
  </g>
  <g opacity=".86">
   <path d="m462.78 518.54s-2.824 15.472-47.438 10.279c-44.623-5.193-8.18-31.396 36.832-20.14 0 0 12.743 3.536 10.606 9.861z" fill="#fff"/>
  </g>
  <path d="m138.34 743.67c-19.721-5.385-40.136-15.031-57.829-31.692-56.802-53.479 0-99.013 0-99.013s77.608-59.339 205.64-11.03c32.588 12.296 40.508 48.543 40.508 48.543 8.098 88.261-101.63 98.56-101.63 98.56s-39.094 9.064-81.479-3.053" fill="#fff"/>
  <path d="m138.918,743.096c-43.556-12.119-101.633-54.594-76.435-105.92 7.141-14.546 17.312-24.114 31.021-31.454 29.759-15.929 64.161-22.451 97.695-22.095 27.237.29 54.225,5.53 80.096,13.868 12.766,4.113 24.67,8.592 34.469,18.027 6.492,6.25 11.492,14 15.271,22.139 12.598,27.132 1.127,60.005-20.076,79.413-18.506,16.939-43.895,26.059-68.293,30.286-29.578,5.126-59.254,6.216-88.542-1.95-.7-.195-2.285.837-1.156,1.152 23.771,6.628 48.908,7.938 73.329,4.578 5.621-.773 9.49-1.483 14.941-2.369 22.773-3.699 45.688-11.713 64.322-25.539 11.871-8.809 21.477-20.4 27.053-34.146 3.16-7.787 4.771-16.095 5.299-24.459 .352-5.564.594-11.604-.984-17.01-4.123-14.112-12.453-27.896-24.059-37.043-9.965-7.854-21.971-11.575-33.92-15.35-13.529-4.273-27.381-7.506-41.389-9.74-38.407-6.129-78.453-3.406-114.98,10.341-12.333,4.642-26.168,10.363-35.887,19.653-15.309,14.634-25.303,35.51-21.485,56.938 3.337,18.734 16.987,34.147 31.165,45.884 14.942,12.37 32.778,20.77 51.387,25.947 .702.196 2.287-.836 1.158-1.151z" fill="#fff"/>
  <path d="m267.78 564.41v18.62c-2.658 115.71-48.77 104.21-76.961 104.21s-47.805 0.317-61.085-20.596c-14.021-22.074-17.011-102.24-17.011-102.24s-1.13-15.275 8.281-15.993 127.28 0 127.28 0 19.672-8.41 19.498 15.993z" fill="#fff"/>
  <path d="m117.2 555.16s6.439 41.188 104.14 26.479c97.695-14.709 17.416-83.847-81.039-52.955 0 0-27.837 17.036-23.099 26.476z" fill="#fff"/>
  <path d="m143.549,744.814c13.539,5.062 23.389,7.544 40.807,8.358 9.585.973 37.732-1.061 63.123-7.407 25.521-6.107 45.666-19.8 45.426-19.98-.574.071 21.883-12.862 31.301-38.514 4.738-12.433 5.697-26.535 4.619-38.078-2.316-12.011-6.766-20.332-9.176-24.581-9.254-15.089-19.365-21.428-33.496-23.848 13.426,5.199 21.041,11.889 29.771,26.008 2.211,3.779 6.535,12.364 8.582,22.813 1.027,11.093.096,24.464-4.357,36.163-8.779,24.09-30.193,36.556-29.691,36.492 .252.153-19.119,13.349-44.07,19.332-24.629,6.162-52.778,8.254-61.891,7.297-17.033-.74-26.68-1.652-40.948-4.055z"/>
  <path d="m80.512,611.794c-7.251,4.597-11.933,8.615-17.605,17.369-3.105,4.473-11.394,20.51-9.59,36.653 1.287,16.047 10.192,28.044 9.986,27.938-.092.011 7.634,12.13 19.555,22.005 11.466,10.42 26.564,18.188 31.658,20.398 9.443,4.156 15.314,5.296 23.827,6.341-7.772-3.71-12.889-6.188-22.018-10.273-4.927-2.179-19.531-9.691-30.608-19.753-11.558-9.578-18.855-21.057-18.767-21.051 .167.093-8.154-11.272-9.292-25.969-1.671-14.76 5.999-29.731 8.933-34.016 5.317-8.304 8.517-12.985 13.921-19.642z"/>
  <path d="m113.081,566.194c-.614,16.155-.633,27.181 1.458,46.424 .619,5.205 1.802,15.641 4.279,28.261 2.492,12.165 5.923,28.632 17.905,38.799 11.91,10.36 27.351,10.852 37.212,11.346 10.237.313 16.736.138 16.746.186 .03-.091 6.36.204 16.681.309 9.988.102 25.592-1.655 36.783-12.507 11.145-10.5 16.586-25.634 19.676-38.026 3.18-12.553 4.201-23.078 4.803-28.298 1.865-19.343.926-30.424-.484-46.492-1.377,16.131-1.955,26.984-3.859,46.039-.607,5.126-1.631,15.496-4.723,27.669-2.973,12.056-8.322,26.449-18.41,35.896-10.023,9.736-24.043,11.409-33.82,11.343-9.938-.095-16.672-.391-16.645-.299 .011-.047-6.569.12-16.585-.192-9.785-.45-24.111-1.141-34.478-10.277-10.722-9.014-13.952-24.067-16.488-36.353-2.436-12.391-3.624-22.752-4.254-27.905-2.144-19.083-3.626-29.906-5.797-45.923z"/>
  <path d="m109.291,556.633c-3.616-5.943-6.589-11.421-16.61-12.962-2.689-.399-8.807,1.442-12.354,6.645-3.691,4.811-6.312,11.662-6.662,18.442-.562,13.769 6.107,24.403 5.799,24.362-.094.026 5.287,10.709 13.434,20.645 3.844,4.964 8.423,10.213 11.392,14.415 2.761,4.573 4.895,8.841 6.015,10.803l.378.69 .187.337 .012.021 .006.011c-.24-3.604-.067-.998-.121-1.802l-.001.003-.01.025-.019.05-.06.142-.536,1.125c-.388.714-.792,1.382-1.233,1.898-.888,1.073-1.725,1.684-2.745,1.791-2.201.126-4.966-1.781-7.478-4.266 1.511,3.175 3.022,6.362 7.236,7.46 2.191.4 4.483-.729 5.945-2.224 .785-.746 1.409-1.608 1.989-2.547 .285-.475.549-.961.797-1.507l.093-.206 .053-.126 .026-.064 .003-.008c-.053-.808.123,1.796-.117-1.812l-.005-.011-.011-.021-.179-.341-.369-.694c-1.149-2.044-3.112-6.052-6.156-11.104-3.519-4.972-7.724-9.695-11.641-14.759-7.987-9.746-13.048-19.829-12.964-19.846 .253.072-5.907-10.156-5.334-22.2 .296-5.879 2.617-11.894 5.758-16.001 3.08-4.267 6.902-5.119 8.727-4.964 6.974.926 11.192,4.346 16.755,8.6z"/>
  <path d="m124.18 561.18s5.76 30.3 93.165 19.479c87.402-10.818 15.578-61.679-72.5-38.955 0 0-24.944 7.11-20.665 19.476z" fill="#2e251a"/>
  <path d="m116.932,555.16c3.307,14.468 13.819,22.181 30.389,27.484 9.183,3.604 38.226,6.246 64.205,2.493 12.953-1.466 25.438-3.866 34.238-7.279 8.896-3.219 13.834-7.486 13.82-7.445-.682-.176 6.881-3.193 8-14.334 .084-11.506-11.596-20.868-23.262-26.443-24.34-11.854-54.012-11.427-63.339-10.713-17.612,1.304-27.424,4.287-40.951,9.762 14.344-2.806 24.054-4.192 41.203-5.402 9.041-.691 38.058-.988 61.175,10.31 11.254,5.192 21.225,14.301 20.799,22.406-.607,7.866-6.852,10.969-6.365,11.015 .004-.055-4.197,3.678-12.617,6.747-8.324,3.225-20.363,5.565-33.223,7.016-25.668,3.684-53.849,1.055-62.466-2.324-15.714-5.201-25.542-10.01-31.606-23.293z"/>
  <g opacity=".86">
   <path d="m129.32 561.07s5.386 28.32 87.086 18.207 14.562-57.655-67.771-36.414c1e-3 0-23.314 6.647-19.315 18.207z" fill="#fff"/>
  </g>
  <g opacity=".86">
   <path d="m135.39 560.96s4.918 25.871 79.552 16.633 13.304-52.668-61.908-33.265c-1e-3 1e-3 -21.298 6.074-17.644 16.632z" fill="#d6b03d"/>
  </g>
  <g opacity=".86">
   <path d="m140.33 560.83s4.459 23.463 72.15 15.087 12.066-47.77-56.15-30.174c0 0-19.313 5.51-16 15.087z" fill="#fff"/>
  </g>
  <g opacity=".86">
   <path d="m141.96 560.79s4.347 22.86 70.303 14.699c65.957-8.166 11.754-46.545-54.711-29.398 0 0-18.821 5.367-15.592 14.699z" fill="#fff"/>
  </g>
  <g opacity=".86">
   <path d="m146.86 560.71s3.967 20.888 64.218 13.429 10.742-42.517-49.977-26.856c1e-3 -1e-3 -17.192 4.904-14.241 13.427z" fill="#d6b03d"/>
  </g>
  <g opacity=".86">
   <path d="m150.85 560.6s3.599 18.941 58.243 12.178c54.65-6.764 9.744-38.561-45.329-24.358 0 0-15.59 4.448-12.914 12.18z" fill="#fff"/>
  </g>
  <g opacity=".86">
   <path d="m153.16 560.12s3.544 18.649 57.351 11.992 9.589-37.973-44.633-23.985c0 0-15.353 4.379-12.718 11.993z" fill="#fff"/>
  </g>
  <g opacity=".86">
   <path d="m157.16 560.04s3.235 17.041 52.389 10.956c49.15-6.084 8.765-34.683-40.771-21.91 0 0-14.024 4.003-11.618 10.954z" fill="#d6b03d"/>
  </g>
  <g opacity=".86">
   <path d="m160.42 559.95s2.937 15.452 47.512 9.935 7.951-31.456-36.978-19.871c0-1e-3 -12.717 3.628-10.534 9.936z" fill="#fff"/>
  </g>
  <path d="m127.271,196.364c-.631,4.047-.494,8.135-.162,12.204-.017-.2 2.887-.512 2.897-.776 .164-4.062.28-8.139.162-12.204 .007.208-2.904.524-2.897.776 .118,4.065.001,8.142-.162,12.204l2.897-.776c-.331-4.068-.468-8.157.162-12.204-.058.379-2.831.356-2.897.776z" fill="#7d5b30"/>
  <path d="m127.109,208.568c-.686,15.146-2.499,30.524-7.786,44.816-.141.381 1.04,2.206 1.201,2.547l3.351,7.11c2.148,4.561 4.299,9.12 6.434,13.687 .083.178 2.833-.914 2.897-.776-3.632-7.771-7.299-15.527-10.958-23.285-.573-1.214 2.535-7.93 2.953-9.486 1.162-4.323 1.972-8.738 2.682-13.154 1.183-7.352 1.787-14.8 2.123-22.234-.012.279-2.882.452-2.897.775z" fill="#7d5b30"/>
  <path d="m136.407,284.715c.313-.388.049-2.78.106-3.327 .316-3.022 1.45-5.923 2.635-8.691 1.99-4.648 1.766-8.817 1.15-13.822-1.747-14.208-5.757-28.04-7.092-42.32 .014.145-2.916.587-2.897.776 1.296,13.87 4.917,27.364 6.93,41.125 .609,4.162 1.543,9.354-.202,13.366-1.354,3.11-2.63,6.066-3.282,9.414-.149.763.181,3.727-.245,4.254 .499-.616 2.381-.136 2.897-.775z" fill="#7d5b30"/>
  <path d="m184.56,162.92c5.669-1.116 11.975,1.672 16.778-2.563 1.537-1.357 2.413-3.563 3.583-5.25 2.498-3.597 5.238-7.9 5.421-12.392-.012.276-2.885.458-2.898.776-.191,4.73-3.18,9.166-5.8,12.94-1.806,2.601-2.872,5.401-6.225,6.438l2.848-.759c-3.621.433-7.232-.672-10.915.052-.886.176-2.1.622-2.792.758z" fill="#7d5b30"/>
  <path d="m177.529,104.891c-25.517,11.729-40.236,40.548-39.976,67.945-.002-.228 2.9-.505 2.897-.776-.26-27.397 14.459-56.216 39.976-67.945-.891.409-1.998.363-2.897.776z" fill="#7d5b30"/>
  <path d="m213.604,120.422c.532-1.437 3.248-3.659 1.163-3.181-.47.108-.935.239-1.4.364-2.123.569-2.925,1.583-2.903,4.012-.001-.153 2.6-.608 2.898-.776 9.531-5.38-4.255-15.302-9.634-17.403-8.193-3.2-16.91-2.004-24.926.92 .933-.34 1.96-.435 2.897-.776 8.313-3.033 19.126-1.073 25.99,4.452 4.133,3.327 9.21,9.951 2.774,13.583l2.898-.776c-.015-1.592.182-2.594 1.458-3.609l-2.897.776c1.44-.456 1.458-.205.052.754-.627.706-1.05,1.518-1.269,2.437 .194-.525 2.691-.218 2.899-.777z" fill="#7d5b30"/>
  <path d="m213.246,116.805c.104.875-.023,1.716-.385,2.521l2.898-.776c-.631-3.438-2.97-5.519-6.414-4.606-4.031,1.068-6.227,4.125-9.179,6.97-10.128,9.757-22.612,16.69-34.412,24.164-4.947,3.134-5.908,7.805-8.536,12.792-2.764,5.246-6.779,9.535-11.658,12.86-7.61,5.186-17.991.5-25.301,6.635-4.07,3.416-5.851,8.665-6.998,13.662-1.658,7.222-4.303,14.188-6.411,21.301-4.132,13.943-8.044,30.238-4.992,44.765 2.557,12.172 12.771,21.259 22.097,28.582 1.656,1.301 3.811,3.895 4.03,5.7 .459,3.788.81,7.588 1.162,11.387 .754,8.147 1.432,16.296 2.554,24.403 6.469,46.753 40.139,84.482 48.197,130.869 4.236,24.385-3.453,47.624-3.865,71.873-.109,6.389 1.131,12.521 5.548,17.34 4.444,4.848 11.792,10.363 12.693,17.512-.026-.209 2.801-.468 2.898-.777 2.528-7.988-3.39-16.06-6.822-22.624-4.4-8.415-1.598-19.883 1.005-28.407 3.53-11.558 9.278-22.213 12.537-33.939 2.738-9.855 4.595-20.463 2.828-30.652-1.96-11.303-4.603-21.649-2.989-33.217 1.295-9.288 1.434-18.683 3.346-27.861 3.013-14.454 7.911-28.438 12.033-42.592 3.657-12.558 6.685-25.59 6.517-38.744-.08-6.222-1.221-12.413-3.215-18.296-2.08-6.137-7.017-11.873-10.817-17.039-7.149-9.715-16.74-19.698-18.591-32.013-1.966-13.08 5.65-25.996 12.361-36.55 13.863-21.799 27.53-45.36 33.238-70.799 .634-2.823 1.086-5.682 1.486-8.545 .42-3.005 1.644-7.564-.158-10.09-3.348-4.692-8.636-7.358-14.017-8.957-11.98-3.559-25.096-6.077-37.596-4.936-.984.09-1.92.687-2.897.776 13.213-1.207 27.664,1.516 40.201,5.763 4.415,1.496 12.51,5.913 12.241,11.2-.383,7.532-1.838,14.977-3.815,22.238-3.797,13.945-10.328,27.025-17.214,39.663-3.417,6.271-7.002,12.449-10.547,18.648-3.791,6.63-8.302,12.675-11.617,19.609-2.923,6.114-4.713,12.657-4.787,19.446-.085,7.784 3.625,14.027 7.806,20.269 7.575,11.308 18.816,21.935 22.815,35.179 4.263,14.117 1.921,29.691-1.518,43.714-3.498,14.268-8.461,28.131-12.273,42.313-1.736,6.46-3.143,12.998-4.225,19.599-.711,4.343.236,8.907-.626,13.298-1.4,7.134-1.949,14.038-1.321,21.318 .9,10.445 4.548,19.885 3.748,30.49-.718,9.513-3.412,18.888-6.52,27.863-3.239,9.354-7.919,18.048-10.456,27.645-2.227,8.422-3.549,18.536 1.241,26.318 3.469,5.636 7.926,13.721 5.721,20.688l2.898-.777c-.886-7.018-8.156-12.891-12.693-17.511-4.569-4.653-5.558-11.083-5.548-17.34 .016-10.433 2.067-20.94 3.41-31.254 1.865-14.321 2.665-27.901.179-42.209-3.011-17.329-10.162-32.458-17.143-48.325-6.149-13.978-12.991-27.639-19.02-41.673-6.276-14.611-10.563-29.053-12.482-44.862-.836-6.887-1.367-13.811-2.006-20.718-.293-3.168-.625-6.331-.986-9.492-.252-2.208-2.447-3.864-4.03-5.7-1.577-1.829-4.101-3.292-5.942-4.886-2.276-1.969-4.406-4.093-6.445-6.304-3.597-3.901-6.464-8.369-8.451-13.285-4.677-11.573-1.726-26.338.889-38.066 1.489-6.679 3.521-13.235 5.61-19.747 1.82-5.673 3.11-11.468 4.946-17.113 1.833-5.637 5.832-10.921 12.137-11.262 3.896-.21 7.625.018 11.431-.991 7.554-2.002 13.51-7.382 17.726-13.828 2.686-4.107 3.667-9.379 6.889-13.058 1.465-1.673 4.038-2.713 5.89-3.876 2.859-1.797 5.735-3.568 8.596-5.363 5.204-3.265 10.308-6.672 15.195-10.396 2.697-2.055 5.254-4.282 7.738-6.587 2.355-2.186 4.322-5.238 7.349-6.464l-2.897.776c3.13-.182 4.813,1.97 5.346,4.877-.03-.167 2.815-.497 2.898-.776 .36-.805.489-1.645.385-2.521-.003.251-2.894.485-2.898.778z" fill="#7d5b30"/>
  <path d="m185.309,544.253c-1.365-1.824-2.816-4.404-3.221-5.734-1.197-3.926-.707-20.586 1.031-35.082 .891-7.424 1.617-20.025 1.615-28-.006-22.84-2.658-33.273-16.389-64.477-31.291-71.111-29.559-65.478-35.395-115.023-.799-6.781-1.404-7.718-11.443-17.69-6.684-6.639-9.629-10.474-12.48-16.244l-3.732-7.553 .582-11.256c.58-11.202 2.066-18.239 8.811-41.692 4.156-14.457 6.977-21.068 9.904-23.213 1.375-1.008 6.131-2.461 10.568-3.229s9.84-2.301 12-3.407c5.678-2.903 11.602-9.316 15.975-17.293 3.602-6.568 4.459-7.382 15.385-14.596 6.365-4.202 15.724-10.944 20.798-14.982s9.695-7.343 10.27-7.343c.613,0 .783,1.031.414,2.5-.506,2.021-.256,2.5 1.307,2.5 2.613,0 6.283-4.081 6.283-6.986 0-3.212-7.639-10.371-13.143-12.316-5.965-2.108-1.596-2.194 7.143-.141 10.646,2.502 18.014,5.59 21.758,9.121 3.439,3.244 3.512,3.469 2.914,9.074-2.068,19.36-10.305,39.127-32.596,78.209-6.104,10.704-11.583,21.054-12.175,23s-1.305,6.913-1.586,11.038c-.705,10.367 1.473,15.587 13.841,33.187 5.533,7.873 11.588,17.451 13.453,21.285 3.332,6.851 3.391,7.202 3.391,20.185 0,15.492-.615,18.77-9.887,52.729-8.264,30.265-8.695,32.441-10.238,51.544-1.074,13.295-1.004,16.844.604,30.516 2.82,24.016 2.236,27.641-10.087,62.555-5.42,15.352-5.829,17.127-5.858,25.5-.025,6.867.398,9.793 1.791,12.344 2.451,4.492 1.474,5.084-1.608.97zm-48.158-258.911c1.656-2.679 4.441-16.723 4.441-22.393 0-3.43-1.574-15.103-3.5-25.941-1.924-10.838-3.5-19.9-3.5-20.138s-.674-.433-1.5-.433c-1.238,0-1.5-1.833-1.5-10.5 0-9.711-.145-10.5-1.932-10.5-2.551,0-2.826,1.15-4.063,17-1.27,16.272-1.473,17.615-4.723,31.188l-2.559,10.688 5.389,10.812c3.543,7.111 6.166,11.154 7.66,11.81 2.02.886 2.203,1.474 1.637,5.25-.574,3.831-.434,4.252 1.418,4.252 1.13,0 2.361-.493 2.732-1.095zm65.824-125.216c3.281-3.484 8.617-13.469 8.617-16.126 0-.873-.846-1.563-1.912-1.563-1.385,0-2.93,2.055-5.578,7.415-4.521,9.149-5.877,10.409-12.081,11.215-8.467,1.1-8.489,2.307-.045,2.339 7.641.03 7.973-.069 10.999-3.28z" fill="#cccccb" opacity=".3"/>
  <path d="m140.605,168.713c.006-2.077.891-8.051 1.963-13.276 4.348-21.174 18.311-40.651 35.318-49.263 8.877-4.494 20.271-3.356 28.387,2.833 3.846,2.933 4.125,4.039 1.254,4.95-1.135.36-5.297,3.585-9.25,7.166s-12.359,9.9-18.686,14.043c-6.324,4.144-13.154,8.637-15.176,9.987-2.496,1.666-4.736,4.593-6.979,9.119-3.607,7.282-9.648,14.495-14.043,16.768l-2.803,1.449 .015-3.776z" fill="#cccccb" opacity=".31"/>
  <path d="m448.666,178.916c.382,5.875.214,11.882-.775,17.688-.53,3.108-1.445,6.545-3.834,8.752-.68.628-1.646.444-1.601,1.409 .074,1.565.071,3.133.052,4.699-.058,4.584-.54,9.161-1.588,13.625-.674,2.872-3.104,5.704-2.961,8.547 .368,7.313.237,14.671-.463,21.959-.412,4.295-1.143,8.566-2.394,12.699-.532,1.759-1.268,3.44-2.149,5.049-.357.651-1.974,2.137-1.798,2.795 1.594,5.969 2.937,12.009 4.182,18.059 2.222,10.803 3.948,21.734 4.72,32.742 .681,9.726-.43,19.225-1.321,28.889-1.559,16.909-2.92,33.836-4.442,50.748-1.053,11.701-.818,25.101-5.113,36.193-2.498,6.455-5.822,12.42-7.236,19.266-2.118,10.252 1.738,19.428 6.33,28.373 2.925,5.697 6.455,12.406 5.331,19.029-.93,5.484-3.445,10.508-4.221,16.107 .051-.373 2.54-.299 2.664-.715 1.501-4.996 1.625-10.496 1.138-15.643-.452-4.783-1.913-9.389-4.03-13.682-2.742-5.561-7.207-9.223-11.339-13.641-11.834-12.656-10.732-34.385-8.472-50.268 .402-2.828 1.074-5.525 1.661-8.291 1.902-8.958-4.345-17.886-9.937-24.124-4.188-4.672-6.698-11.228-9.421-16.82-5.53-11.365-10.327-23.143-13.695-35.336-1.303-4.716-1.762-6.557-4.51-10.321-4.491-6.151-10.263-11.94-12.188-19.472-2.934-11.479-.057-24.998 3.205-36.153 .224-.766.832-1.432 1.234-2.115 1.911-3.243 3.1-6.865 4.02-10.494 1.162-4.582 1.127-9.305 2.595-13.826 1.099-3.385 3.099-6.387 4.187-9.783 1.301-4.06.493-8.507-.085-12.614-.72-5.115-1.907-10.194-3.897-14.968-1.552-3.725-4.004-5.493-6.871-8.092-3.857-3.497-4.477-8.962-3.195-13.712-.115.427-2.541.252-2.666.714-1.684,6.25.302,11.787 5.518,15.604 4.48,3.278 6.002,9.567 7.234,14.667 1.381,5.716 2.65,12.216 1.565,18.066-.866,4.668-3.95,8.749-5.201,13.346-1.61,5.915-1.602,11.883-3.878,17.697-.8,2.041-2.554,4.001-3.168,6.036-1.959,6.49-3.209,13.24-3.896,19.976-.482,4.717-.486,9.48.203,14.174 .824,5.61 3.577,9.498 6.9,13.939 2.469,3.299 4.924,6.608 7.337,9.948 1.573,2.179 1.798,3.789 2.49,6.565 4.537,18.2 12.749,36.08 22.171,52.275 1.12,1.924 3.373,3.698 4.777,5.485 1.51,1.922 2.766,4.024 3.907,6.18 1.459,2.759 2.372,5.788 2.765,8.875 .318,2.498-.206,4.619-.723,6.994-2.104,9.678-2.782,19.834-2.123,29.699 .475,7.115 2,14.211 5.209,20.609 3.66,7.297 10.857,11.682 14.989,18.719 5.124,8.725 6.448,20.768 3.525,30.498l2.664-.715c.893-6.441 4.585-12.83 4.459-19.32-.218-11.143-9.491-20.691-11.845-31.418-2.205-10.057 1.547-19.314 5.589-28.309 2.964-6.594 3.996-12.953 4.778-20.066 2.271-20.657 3.781-41.401 5.606-62.101 .827-9.375 2.211-18.826 2.366-28.239 .184-11.169-1.454-22.395-3.374-33.369-1.187-6.783-2.624-13.523-4.215-20.222-.446-1.875-.912-3.747-1.396-5.612-.408-1.575.745-2.148 1.601-3.544 3.341-5.448 4.055-12.654 4.651-18.866 .6-6.246.643-12.558.438-18.826-.153-4.704 2.438-8.24 3.399-12.941 1.094-5.345 1.311-11.044.986-16.488 .015.244 2.396-1.641 2.548-1.813 .838-.958 1.325-2.225 1.776-3.394 1.128-2.927 1.479-6.183 1.771-9.282 .399-4.238.419-8.569.142-12.817 .013.162-2.676.518-2.662.718z" fill="#7d5b30"/>
  <path d="m359.629,176.129c2.503,18.896-10.756,37.684-24.184,49.241 .621-.534 2.031-.168 2.666-.714 13.427-11.557 26.686-30.345 24.182-49.241 .014.098-2.683.576-2.664.714z" fill="#7d5b30"/>
  <path d="m439.456,260.247c8.891-12.463 16.454-26.486 21.225-41.035 2.619-7.989 2.339-16.111 4.378-24.103 1.759-6.895 4.012-13.778 5.324-20.774 1.041-5.548.417-11.246-2.652-16.063-5.417-8.501-16.34-10.026-25.353-11.752-15.624-2.991-20.623-16.424-16.646-30.546 2.488-8.837 5.689-17.173 6.693-26.439 .688-6.344.729-14.662-4.8-18.983-3.399-2.657-9.103-2.607-13.163-3.134-4.922-.64-9.892-.803-14.78.137-6.302,1.212-11.658,4.075-15.983,8.893-5.197,5.79-5.629,15.338-5.81,22.72-.161,6.613.365,17.597 6.376,22.002 3.43,2.514 8.319,2.222 12.281,1.738 2.771-.338 1.188,1.377.209,3.417-3.707,7.725-10.464,11.086-18.86,9.812-6.782-1.029-12.515-.928-18.894,1.52-7.759,2.977-13.514,10.29-16.916,17.616-1.769,3.811-2.281,7.979-3.074,12.064-1.182,6.077-4.299,8.899-8.304,13.19-6.789,7.273-9.7,19.265-12.292,28.558-.708,2.539-1.327,5.102-1.909,7.671-.378,1.67-.373,4.245-1.171,5.738-1.744,3.263-3.594,7.096-3.5,10.864 .076,3.046 3.935,6.48 5.877,8.395 4.348,4.286 9.826,7.126 15.658,8.771 9.672,2.728 19.285,5.67 28.899,8.594 2.015.613 4.029,1.228 6.042,1.846 .756.232 1.932-.939 2.666-.714-6.954-2.134-13.916-4.241-20.885-6.324-10.559-3.156-21.361-5.182-29.717-12.887-2.342-2.16-5.195-5.162-5.877-8.395-.709-3.367 1.994-7.984 3.5-10.864 .786-1.503.807-4.063 1.172-5.738 .559-2.575 1.222-5.128 1.909-7.671 1.565-5.792 3.481-11.495 5.774-17.04 1.681-4.065 3.674-8.132 6.518-11.518 1.466-1.746 3.4-2.982 4.873-4.752 1.963-2.359 2.784-5.513 3.43-8.438 1.889-8.561 3.669-15.257 9.551-22.038 2.869-3.308 6.441-5.888 10.439-7.643 6.045-2.653 12.555.331 18.738.309 4.939-.017 10.588-2.08 14.268-5.25 2.164-1.865 3.771-4.353 4.997-6.907 1.537-3.203 1.729-3.167-1.995-2.711-6.492.794-11.731-1.042-14.258-7.004-4.373-10.314-3.336-22.667-.529-33.247 2.16-8.139 10.568-13.838 18.68-14.468 5.348-.415 10.803.472 16.062,1.329 4.005.653 7.313,1.379 9.764,4.834 4.066,5.731 2.779,14.674 1.73,21.111-1.375,8.448-4.86,16.122-6.718,24.373-1.25,5.56-1.234,11.489 1.107,16.757 3.596,8.093 12.525,10.65 20.525,11.891 8.399,1.303 17.386,4.649 21.836,12.358 2.733,4.735 2.704,10.539 1.648,15.744-1.411,6.956-3.61,13.816-5.365,20.695-.775,3.041-.901,5.433-1.091,8.583-.323,5.396-1.778,10.714-3.455,15.826-4.618,14.085-12.217,27.741-20.818,39.798 .406-.569 2.247-.129 2.666-.716z" fill="#7d5b30"/>
  <path d="m412.938,313.716c3.174,11.608 6.052,23.305 8.72,35.039 2.054,9.033 3.946,18.112 5.396,27.263 .968,6.108 2.244,12.879 1.194,19.061 .062-.359 2.598-.318 2.665-.715 1.052-6.194-.252-12.937-1.195-19.06-1.409-9.155-3.356-18.231-5.396-27.263-2.65-11.737-5.547-23.432-8.72-35.039-.006-.024-2.668.698-2.664.714z" fill="#7d5b30"/>
  <path d="m335.445,225.37c5.727,1.607 11.35,3.639 16.849,5.892 7.511,3.078 17.161,7.068 21.52,14.369 .14.232 2.546-.912 2.665-.714-4.383-7.341-14.005-11.218-21.52-14.369-5.475-2.295-11.131-4.288-16.848-5.892-.771-.217-1.914.925-2.666.714z" fill="#7d5b30"/>
  <path d="m420.414,484.452c-10.748-11.74-14.021-26.102-10.891-47.783 2.213-15.326 2.236-19.724.137-24.499-1.09-2.476-4.484-7.875-7.547-12-6.432-8.668-16.701-30.749-22.123-47.575-3.41-10.58-4.984-13.588-13.049-24.925-5.115-7.191-6.896-14.111-6.168-23.965 .695-9.399 2.723-17.81 6.184-25.645 1.361-3.085 3.182-9.161 4.047-13.5s2.732-10.7 4.154-14.134c2.27-5.484 2.508-7.133 1.965-13.548-.982-11.634-4.076-20.153-9.377-25.819-3.729-3.985-4.635-5.709-5.064-9.622-.289-2.622-.961-5.051-1.496-5.398-.625-.406-.592-1.836.09-4 2.025-6.433 1.83-15.869-.328-15.869-1.088,0-1.5,1.117-1.5,4.052 0,12.381-6.65,26.864-18.016,39.238-3.43,3.735-6.068,6.919-5.861,7.076s3.977,1.551 8.377,3.099c11.01,3.872 22.535,9.936 26.234,13.803l3.09,3.231-2.588,6.25c-1.424,3.438-3.02,6.25-3.543,6.25-2.084,0-34.447-10.352-38.193-12.216-2.201-1.095-6.139-4.065-8.75-6.6-5.205-5.051-6.08-8.714-3.342-14.008 .775-1.498 2.322-6.567 3.438-11.265 4.246-17.882 8.674-28.053 15.611-35.863 2.451-2.761 4.896-6.713 5.434-8.784s1.5-5.782 2.143-8.248c2.77-10.621 9.57-19.545 17.664-23.18 3.572-1.603 5.6-1.786 13.576-1.226 13.611.957 20.285-1.908 24.727-10.613 2.209-4.33 1.842-5.117-2.029-4.343-6.539,1.308-12.311-2.889-14.883-10.822-1.594-4.918-1.438-18.959.293-26.18 1.676-6.991 6.707-12.758 13.342-15.292 4.951-1.891 17.879-1.458 24.682.827 6.52,2.189 8.113,5.408 7.994,16.142-.082,7.434-.793,11.504-3.75,21.5-4.338,14.66-4.748,22.269-1.553,28.869 2.754,5.689 7.713,8.492 20.617,11.654 11.85,2.903 18.26,6.714 21.293,12.661 2.773,5.437 2.518,11.522-1.045,24.813-1.67,6.229-3.482,14.876-4.025,19.217-1.17,9.326-4.756,20.53-9.945,31.072-4.137,8.405-9.1,17.14-9.477,16.681-.777-.95 1.592-25.198 2.908-29.763 .867-3.007 1.578-8.07 1.578-11.25 0-4.384.467-6.25 1.936-7.717 2.813-2.813 4.053-8.395 4.059-18.283 .004-6.922-.273-8.612-1.348-8.199-.922.354-1.559,3.299-1.992,9.219-.764,10.445-2.023,15.318-4.551,17.605-1.48,1.338-1.908,3.208-1.992,8.673-.061,4.052-.943,9.453-2.109,12.912-1.484,4.409-2.004,8.602-2.01,16.227-.01,12.923-1.414,21.78-4.539,28.639l-2.441,5.357 1.941,7.643c3.369,13.267 6.121,31.219 6.691,43.643 .41,8.935-.24,21.068-2.543,47.5-1.703,19.525-3.354,38.876-3.67,43-.98,12.764-2.441,19.082-7.17,31-5.635,14.197-6.059,21.311-1.932,32.463 1.416,3.83 2.432,7.107 2.254,7.285s-2.703-2.283-5.615-5.465h-.004zm11.025-94.532c-.006-5.749-2.273-21.073-4.92-33.251-2.797-12.868-10.578-43.498-11.047-43.484-3.148.091-2.965,2.14 1.977,22.063 6.225,25.098 10.057,45.24 10.309,54.172 .16,5.688.465,6.749 1.939,6.749 1.481,0 1.748-.962 1.742-6.249z" fill="#cdcdcd" fill-opacity=".298"/>
 </g>
</svg>
